<svg xmlns="http://www.w3.org/2000/svg" viewBox="0 0 950 950"><defs><style>.cls-1{fill:#fff;stroke:#231f20;stroke-miterlimit:10;stroke-width:20px;}.cls-2{fill:#231f20;}</style></defs><title>facebook-logo</title><g id="Layer_2" data-name="Layer 2"><g id="Layer_1-2" data-name="Layer 1"><rect class="cls-1" x="10" y="10" width="930" height="930" rx="100" ry="100"/><path class="cls-2" d="M626.73,171.63,548,171.5c-88.44,0-145.59,58.63-145.59,149.38v68.88H323.29a12.38,12.38,0,0,0-12.38,12.38v99.8a12.38,12.38,0,0,0,12.38,12.37h79.14V766.12a12.38,12.38,0,0,0,12.38,12.38H518.07a12.38,12.38,0,0,0,12.38-12.38V514.31H623a12.37,12.37,0,0,0,12.38-12.37l0-99.8A12.39,12.39,0,0,0,623,389.76H530.45V331.37c0-28.06,6.68-42.31,43.24-42.31l53,0a12.37,12.37,0,0,0,12.37-12.37V184A12.38,12.38,0,0,0,626.73,171.63Z"/></g></g></svg>