<svg xmlns="http://www.w3.org/2000/svg" viewBox="0 0 950 950"><defs><style>.cls-1{fill:#fff;stroke:#231f20;stroke-miterlimit:10;stroke-width:20px;}.cls-2{fill:#231f20;}</style></defs><title>instagram-logo</title><g id="Layer_2" data-name="Layer 2"><g id="Layer_1-2" data-name="Layer 1"><rect class="cls-1" x="10" y="10" width="930" height="930" rx="100" ry="100"/><path class="cls-2" d="M475.1,332.74A142.15,142.15,0,1,0,617.24,474.89,142.14,142.14,0,0,0,475.1,332.74Zm0,234.41a92.26,92.26,0,1,1,92.26-92.26A92.23,92.23,0,0,1,475.1,567.15Z"/><path class="cls-2" d="M589.22,199.74c-51-2.38-177.21-2.26-228.22,0-44.83,2.1-84.37,12.93-116.25,44.8-53.27,53.28-46.46,125.07-46.46,230.35,0,107.75-6,177.88,46.46,230.34,53.49,53.46,126.31,46.47,230.35,46.47,106.73,0,143.57.07,181.31-14.54,51.32-19.92,90.05-65.79,93.84-148.17,2.4-51,2.26-177.21,0-228.22-4.57-97.25-56.76-156.23-161-161ZM669.89,670c-34.92,34.92-83.37,31.8-195.46,31.8-115.42,0-161.7,1.71-195.47-32.15-38.89-38.71-31.85-100.87-31.85-195.12C247.11,347,234,255.14,362,248.58c29.41-1,38.07-1.38,112.1-1.38l1,.69c123,0,219.52-12.88,225.32,115.09,1.31,29.2,1.61,38,1.61,111.89,0,114.07,2.15,160.63-32.18,195.12Z"/><circle class="cls-2" cx="622.87" cy="327.13" r="33.22"/></g></g></svg>