<svg xmlns="http://www.w3.org/2000/svg" viewBox="0 0 950 950"><defs><style>.cls-1{fill:#fff;stroke:#231f20;stroke-miterlimit:10;stroke-width:20px;}.cls-2{fill:#231f20;}</style></defs><title>twitter-logo</title><g id="Layer_2" data-name="Layer 2"><g id="Layer_1-2" data-name="Layer 1"><rect class="cls-1" x="10" y="10" width="930" height="930" rx="100" ry="100"/><path class="cls-2" d="M712.56,353.23A245,245,0,0,0,774,289.6v0a256.11,256.11,0,0,1-70.64,19.36,121.92,121.92,0,0,0,53.95-67.75,245.27,245.27,0,0,1-77.74,29.68A122.59,122.59,0,0,0,467.5,354.68a126.09,126.09,0,0,0,2.84,27.95c-101.91-5-192.11-53.82-252.7-128.24a122.57,122.57,0,0,0,37.67,163.85,121.07,121.07,0,0,1-55.39-15.1v1.35c0,59.57,42.48,109.06,98.22,120.47A121.9,121.9,0,0,1,266,529a107.9,107.9,0,0,1-23.2-2.09c15.87,48.54,61,84.24,114.54,85.42a246.45,246.45,0,0,1-152,52.27A232.07,232.07,0,0,1,176,662.92a345.22,345.22,0,0,0,188.07,55c216.35,0,357.36-180.5,348.49-364.71Z"/></g></g></svg>