<svg xmlns="http://www.w3.org/2000/svg" viewBox="0 0 950 950"><defs><style>.cls-1{fill:#fff;stroke:#231f20;stroke-miterlimit:10;stroke-width:20px;}.cls-2{fill:#231f20;}</style></defs><title>youtube-logo</title><g id="Layer_2" data-name="Layer 2"><g id="Layer_1-2" data-name="Layer 1"><rect class="cls-1" x="10" y="10" width="930" height="930" rx="100" ry="100"/><path class="cls-2" d="M680.6,478.16c-5.21-22.65-23.74-39.36-46.05-41.85-52.8-5.89-106.27-5.92-159.48-5.89s-106.69,0-159.51,5.89c-22.29,2.5-40.81,19.21-46,41.85-7.43,32.26-7.52,67.47-7.52,100.69s0,68.42,7.43,100.68c5.21,22.65,23.72,39.36,46,41.85,52.8,5.9,106.26,5.93,159.49,5.9s106.68,0,159.5-5.9c22.29-2.49,40.82-19.2,46-41.85,7.42-32.26,7.46-67.47,7.46-100.68S688,510.42,680.6,478.16Zm-297.08,25H352.7V667H324.06V503.17H293.8V476.33h89.72ZM461.3,667H435.54v-15.5c-10.23,11.73-20,17.45-29.41,17.45-8.3,0-14-3.36-16.58-10.55-1.41-4.3-2.28-11.1-2.28-21.12V524.93H413V629.51c0,6,0,9.17.23,10,.62,4,2.58,6,6,6,5.16,0,10.56-4,16.27-12.06V524.93h25.75V667Zm97.79-42.63c0,13.13-.89,22.6-2.61,28.62-3.44,10.57-10.32,16-20.56,16-9.16,0-18-5.08-26.6-15.71V667H483.58V476.33h25.74V538.6c8.31-10.24,17.14-15.41,26.6-15.41,10.24,0,17.13,5.39,20.56,16,1.73,5.72,2.61,15.11,2.61,28.56Zm97.14-23.7H604.75v25.18c0,13.14,4.3,19.71,13.15,19.71,6.34,0,10-3.44,11.49-10.32.24-1.4.58-7.12.58-17.44h26.26v3.76c0,8.29-.32,14-.55,16.58a36.65,36.65,0,0,1-6,15.42c-7.13,10.31-17.69,15.4-31.13,15.4s-23.72-4.85-31.16-14.55c-5.46-7.11-8.26-18.3-8.26-33.4V571.24c0-15.19,2.49-26.3,8-33.47,7.43-9.72,17.67-14.57,30.82-14.57,12.92,0,23.16,4.85,30.37,14.57,5.39,7.17,8,18.28,8,33.47v29.41Z"/><path class="cls-2" d="M617.67,546.36q-12.9,0-12.92,19.71v13.14h25.74V566.07C630.48,552.94,626.18,546.36,617.67,546.36Z"/><path class="cls-2" d="M522.15,546.36c-4.24,0-8.54,2-12.84,6.26V639.2c4.3,4.31,8.6,6.35,12.84,6.35,7.42,0,11.19-6.35,11.19-19.17V565.75C533.34,552.94,529.57,546.36,522.15,546.36Z"/><path class="cls-2" d="M536.53,417.32c9.48,0,19.36-5.76,29.71-17.63v15.66h26V271.79h-26V381.51c-5.76,8.15-11.23,12.18-16.43,12.18-3.48,0-5.53-2.06-6.1-6.09-.32-.86-.32-4-.32-10.11V271.79H517.46V385.31c0,10.14.87,17,2.31,21.34C522.38,413.93,528.15,417.32,536.53,417.32Z"/><path class="cls-2" d="M355.43,337.33v78h28.85v-78L419,222.71H389.81l-19.69,75.65-20.47-75.65H319.29c6.08,17.86,12.41,35.81,18.49,53.68C347,303.25,352.81,323.51,355.43,337.33Z"/><path class="cls-2" d="M457.64,417.32q19.55,0,30.34-14.69c5.46-7.19,8.08-18.51,8.08-33.76V318.6c0-15.35-2.61-26.57-8.08-33.82Q477.21,270,457.64,270.06t-30.29,14.72c-5.52,7.25-8.14,18.47-8.14,33.82v50.27c0,15.25,2.62,26.57,8.14,33.76Q438.15,417.32,457.64,417.32ZM445.22,313.38c0-13.28,4-19.9,12.42-19.9s12.4,6.61,12.4,19.9v60.39c0,13.28-4,19.92-12.4,19.92s-12.42-6.64-12.42-19.92Z"/></g></g></svg>